<svg width="74" height="71" viewBox="0 0 74 71" fill="none" xmlns="http://www.w3.org/2000/svg">
<g clip-path="url(#clip0_9_86)">
<path d="M61.9375 37.2447C61.9375 37.1196 61.9031 37.0303 61.8334 36.9721C61.7556 36.9092 61.6215 36.8758 61.4348 36.8758H61.1665V37.6183H61.4903C61.7895 37.6183 61.9372 37.4932 61.9372 37.2447H61.9375ZM62.3557 38.7926H61.9869L61.7516 38.2704C61.6322 38.0085 61.5044 37.8776 61.3651 37.8776H61.1665V38.7926H60.8624V36.6151H61.4715C61.7421 36.6151 61.9456 36.6741 62.0849 36.7972C62.2034 36.9031 62.2624 37.0387 62.2624 37.2075C62.2624 37.3576 62.2141 37.4839 62.117 37.5886C62.0224 37.6942 61.8863 37.7658 61.7126 37.8028V37.8121C61.8331 37.8406 61.9536 37.9739 62.071 38.2142L62.3557 38.7938V38.7926ZM63.0292 37.7254C63.0292 37.2968 62.8841 36.9351 62.5945 36.6482C62.3037 36.3616 61.949 36.2176 61.5307 36.2176C61.0989 36.2176 60.7396 36.3616 60.4549 36.6509C60.1698 36.9412 60.0279 37.3006 60.0279 37.7254C60.0279 38.1598 60.1759 38.5226 60.469 38.8118C60.7587 39.1007 61.1133 39.2436 61.5305 39.2436C61.9456 39.2436 62.2999 39.0996 62.5922 38.8069C62.8841 38.5188 63.0295 38.1572 63.0295 37.7254H63.0292ZM63.2339 37.7158C63.2339 38.1967 63.0697 38.6003 62.7399 38.9247C62.4101 39.252 62.0057 39.415 61.5224 39.415C61.0353 39.415 60.6309 39.2544 60.3095 38.939C59.9877 38.6189 59.8282 38.2168 59.8282 37.7289C59.8282 37.2517 59.9915 36.8508 60.3176 36.5214C60.6439 36.1926 61.0506 36.0288 61.5365 36.0288C62.0129 36.0288 62.4124 36.1859 62.7361 36.4987C63.0686 36.8199 63.2339 37.2243 63.2339 37.7158ZM16.9969 43.7881H15.9482V37.7478C15.9482 37.2706 15.9794 36.6901 16.0349 36.0049H16.0118C15.9135 36.4056 15.8236 36.696 15.7444 36.8758L12.6968 43.7881H12.186L9.13238 36.9258C9.04653 36.7341 8.95634 36.4259 8.86529 36.0046H8.84274C8.87454 36.3654 8.89275 36.9497 8.89275 37.7597V43.7881H7.8819V34.7931H9.26506L12.0065 41.065C12.2135 41.5375 12.347 41.8972 12.4121 42.1422H12.4554C12.6341 41.6504 12.7757 41.2818 12.8833 41.0388L15.684 34.7931H16.9963V43.7878L16.9969 43.7881ZM20.222 43.7878H19.203V37.3646H20.222V43.7878ZM20.3983 35.0619C20.3983 35.251 20.3318 35.4093 20.2009 35.5391C20.072 35.6689 19.9124 35.734 19.7257 35.734C19.5435 35.734 19.3851 35.6715 19.2551 35.5464C19.125 35.4201 19.0614 35.2595 19.0614 35.0619C19.0614 34.8763 19.1256 34.718 19.2551 34.5897C19.3167 34.5277 19.3902 34.4788 19.471 34.4461C19.5519 34.4133 19.6385 34.3974 19.7257 34.3991C19.9124 34.3991 20.072 34.4611 20.2009 34.5897C20.3321 34.718 20.3983 34.8763 20.3983 35.0619ZM26.5903 43.4905C26.1009 43.7928 25.5167 43.9426 24.8418 43.9426C23.9269 43.9426 23.1904 43.6371 22.6276 43.0264C22.0812 42.434 21.806 41.6688 21.806 40.731C21.806 39.6792 22.1052 38.8272 22.7079 38.1799C23.3074 37.5313 24.1136 37.2078 25.1279 37.2078C25.6824 37.2078 26.1744 37.3172 26.6045 37.5336V38.5892C26.1281 38.2526 25.6246 38.0859 25.084 38.0859C24.4339 38.0859 23.9055 38.3143 23.4953 38.7702C23.0687 39.2366 22.8522 39.8602 22.8522 40.6382C22.8522 41.3857 23.0496 41.9769 23.4421 42.4136C23.8358 42.848 24.3596 43.0657 25.0204 43.0657C25.5783 43.0657 26.1009 42.8812 26.59 42.5137L26.5903 43.4905ZM31.4645 38.4068C31.2847 38.2674 31.0257 38.1996 30.684 38.1996C30.2692 38.1996 29.9203 38.3864 29.6379 38.7635C29.3176 39.1848 29.1581 39.7679 29.1581 40.5128V43.7875H28.1365V37.3643H29.1581V38.6887H29.1826C29.3329 38.2197 29.5645 37.8592 29.8741 37.6035C30.1637 37.3701 30.4912 37.2523 30.8517 37.2523C31.1237 37.2523 31.3257 37.282 31.4642 37.3399L31.4645 38.4068ZM37.157 40.5879C37.157 39.7656 36.9726 39.1374 36.6037 38.7065C36.2456 38.2925 35.7452 38.0853 35.1012 38.0853C34.4664 38.0853 33.9568 38.2948 33.5761 38.7138C33.1731 39.161 32.9719 39.7929 32.9719 40.6129C32.9719 41.3816 33.1636 41.9848 33.5501 42.4154C33.9345 42.8486 34.4519 43.0651 35.1012 43.0651C35.7727 43.0651 36.2869 42.8451 36.639 42.4072C36.9844 41.9789 37.157 41.3732 37.157 40.5879ZM38.2043 40.5515C38.2043 41.5751 37.9172 42.3973 37.3449 43.0136C36.7705 43.6325 35.9973 43.9418 35.0254 43.9418C34.0681 43.9418 33.3055 43.6325 32.7465 43.0136C32.199 42.4174 31.9235 41.6298 31.9235 40.6504C31.9235 39.5331 32.2345 38.6716 32.8586 38.06C33.4356 37.4926 34.2074 37.2069 35.1746 37.2069C36.1262 37.2069 36.8697 37.5054 37.4053 38.0969C37.936 38.6917 38.2043 39.5104 38.2043 40.5515ZM43.2698 42.0694C43.2698 42.5952 43.0747 43.0308 42.6833 43.3782C42.2566 43.7541 41.6704 43.9423 40.9327 43.9423C40.3286 43.9423 39.799 43.8149 39.3498 43.5554V42.45C39.8499 42.8594 40.402 43.0654 41.0085 43.0654C41.817 43.0654 42.2225 42.7657 42.2225 42.1681C42.2225 41.917 42.1335 41.7086 41.954 41.5483C41.7745 41.3839 41.4256 41.1875 40.9067 40.9577C40.3722 40.7223 39.9915 40.4808 39.7672 40.2297C39.4975 39.932 39.3617 39.5456 39.3617 39.0696C39.3617 38.5363 39.5733 38.0926 39.9918 37.7391C40.4113 37.3847 40.9504 37.2072 41.6123 37.2072C42.1196 37.2072 42.5734 37.3073 42.9767 37.5083V38.5436C42.5558 38.2378 42.0748 38.0853 41.5285 38.0853C41.1903 38.0853 40.9186 38.1703 40.7162 38.3355C40.5119 38.5043 40.4089 38.7196 40.4089 38.9826C40.4089 39.2672 40.4951 39.4883 40.6656 39.6466C40.8168 39.7929 41.1383 39.9716 41.623 40.1796C42.1679 40.4095 42.5616 40.6475 42.8015 40.8913C43.1126 41.1997 43.2698 41.5922 43.2698 42.0694ZM49.5121 40.5879C49.5121 39.7656 49.3277 39.1374 48.9577 38.7065C48.6007 38.2925 48.0992 38.0853 47.4563 38.0853C46.8215 38.0853 46.3119 38.2948 45.9289 38.7138C45.5271 39.161 45.3271 39.7929 45.3271 40.6129C45.3271 41.3816 45.5187 41.9848 45.9017 42.4154C46.2905 42.8486 46.8085 43.0651 47.4563 43.0651C48.1289 43.0651 48.642 42.8451 48.9941 42.4072C49.3392 41.9789 49.5121 41.3732 49.5121 40.5879ZM50.5617 40.5515C50.5617 41.5751 50.2721 42.3973 49.6988 43.0136C49.1265 43.6325 48.3535 43.9418 47.3817 43.9418C46.4229 43.9418 45.6603 43.6325 45.1013 43.0136C44.5541 42.4174 44.2786 41.6298 44.2786 40.6504C44.2786 39.5331 44.5917 38.6716 45.2123 38.06C45.7893 37.4926 46.5625 37.2069 47.5306 37.2069C48.4825 37.2069 49.2245 37.5054 49.7593 38.0969C50.2911 38.6917 50.5617 39.5104 50.5617 40.5515ZM55.0624 35.1821C54.8615 35.0701 54.6383 35.013 54.384 35.013C53.6688 35.013 53.3141 35.4664 53.3141 36.3744V37.3643H54.8095V38.2354H53.3141V43.7875H52.2914V38.2351H51.2063V37.364H52.2914V36.3229C52.2914 35.6159 52.5068 35.0613 52.9441 34.6616C53.3188 34.3142 53.7775 34.1416 54.3224 34.1416C54.6383 34.1416 54.884 34.1797 55.0624 34.2536V35.1821ZM59.0939 43.723C58.8529 43.8623 58.5311 43.9313 58.134 43.9313C57.0205 43.9313 56.4638 43.2993 56.4638 42.0357V38.2363H55.3691V37.364H56.4638V35.7969C56.7898 35.6933 57.1292 35.5804 57.4873 35.4637V37.364H59.0939V38.2363H57.4873V41.8608C57.4873 42.2914 57.5573 42.5998 57.7036 42.7782C57.8516 42.9627 58.0926 43.0532 58.4332 43.0532C58.6872 43.0532 58.9072 42.9845 59.0939 42.846V43.723Z" fill="#00741D"/>
<path d="M3.87747 68.8567C3.87747 69.3601 3.69912 69.7954 3.33866 70.1631C2.97907 70.5298 2.54287 70.7142 2.03094 70.7142C1.53087 70.7142 1.10537 70.5298 0.756756 70.1631C0.407857 69.7954 0.234131 69.3601 0.234131 68.8567C0.234131 68.3388 0.407857 67.9024 0.756756 67.5407C1.10537 67.1776 1.53087 66.9981 2.03094 66.9981C2.54287 66.9981 2.97907 67.1802 3.33866 67.548C3.69912 67.9155 3.87747 68.3522 3.87747 68.8567ZM26.7472 70.336H23.4161L11.3237 51.5387C11.0328 51.0701 10.7873 50.5743 10.5907 50.0583H10.4912C10.5774 50.5617 10.6213 51.642 10.6213 53.2973V70.336H7.87521V46.7527H11.4394L23.1701 65.2538C23.6372 65.9879 23.9563 66.5136 24.1182 66.8305H24.1835C24.0746 66.152 24.0179 64.9954 24.0179 63.3628V46.7527H26.7475L26.7472 70.336ZM44.3526 70.336H31.935V46.7527H43.8135V49.2518H34.6791V57.0967H43.1434V59.5969H34.6788V67.8357H44.3523V70.336H44.3526ZM63.1876 49.2521H56.4389V70.3363H53.6936V49.2521H46.9322V46.7519H63.1879L63.1876 49.2521Z" fill="#00741D"/>
<path d="M25.8161 6.01969C28.4651 14.1741 29.4687 28.721 37.2156 28.721C37.8053 28.721 38.4013 28.6628 38.9994 28.5482C31.9573 26.8955 31.1225 12.5069 26.8256 5.05573C26.4828 5.37041 26.1464 5.69179 25.8161 6.01969Z" fill="#00741D"/>
<path d="M26.8256 5.05573C31.1228 12.5069 31.9573 26.8955 38.9994 28.5482C39.5527 28.4461 40.1071 28.2913 40.6627 28.096C34.3418 24.979 32.5947 11.0065 27.7144 4.28003C27.4132 4.5329 27.1169 4.79161 26.8256 5.05602" fill="#00741D"/>
<path d="M33.017 0.624112C32.4284 0.624112 31.8312 0.682305 31.232 0.796943C29.6644 1.0943 28.072 1.7737 26.4668 2.80166C26.9053 3.23723 27.3224 3.73565 27.715 4.27974C29.3476 2.91601 30.9695 1.90841 32.5857 1.30263C33.1755 1.0805 33.7833 0.910418 34.4024 0.794324C33.9495 0.679624 33.484 0.622442 33.017 0.624112Z" fill="#00741D"/>
<path d="M45.597 25.2225C46.2704 24.681 46.9189 24.1088 47.5406 23.5079C44.8489 15.3912 43.8854 0.63633 36.0842 0.63633C35.5263 0.63633 34.9635 0.688703 34.4019 0.793448C41.5079 2.57238 42.4181 18.1341 45.5972 25.2225" fill="#00741D"/>
<path d="M34.4022 0.793738C33.9492 0.67919 33.4838 0.622106 33.0167 0.623817L36.0845 0.635164C35.5267 0.635164 34.9638 0.687828 34.4022 0.793738Z" fill="#00741D"/>
<path d="M45.4609 26.9467C45.1559 26.654 44.8663 26.3328 44.5812 25.9901C43.2689 26.9252 41.9618 27.6346 40.6624 28.096C41.1262 28.3253 41.6173 28.4937 42.1236 28.5971C42.5333 28.6806 42.9503 28.7221 43.3683 28.721C44.8261 28.721 45.9786 28.5473 46.9599 28.0736C46.4194 27.7798 45.9242 27.3986 45.4609 26.9467Z" fill="#00741D"/>
<path d="M32.5851 1.30379C38.9497 4.6545 39.503 19.8287 44.5815 25.9901C44.9271 25.7443 45.2655 25.4883 45.5961 25.2225C42.417 18.1341 41.5079 2.57122 34.4033 0.793449C33.7839 0.910821 33.1756 1.08156 32.5851 1.30379Z" fill="#00741D"/>
<path d="M27.7144 4.28003C32.5944 11.0065 34.3418 24.9787 40.6627 28.096C41.962 27.6346 43.2695 26.9252 44.5815 25.9901C39.503 19.8287 38.9497 4.6545 32.5851 1.30379C30.9693 1.90841 29.347 2.91601 27.7144 4.27974" fill="#00741D"/>
<path d="M22.6937 5.82328C21.9288 7.5641 21.1475 9.85222 20.2028 12.8389C22.0814 10.1749 23.954 7.87921 25.8161 6.01997C25.5597 5.22623 25.2842 4.49447 24.9874 3.84213C24.188 4.46053 23.4224 5.12197 22.694 5.82357" fill="#00741D"/>
<path d="M25.6655 3.33994C25.437 3.50365 25.2111 3.67107 24.988 3.84213C25.2848 4.49418 25.5589 5.22594 25.8156 6.01968C26.1463 5.69239 26.4829 5.37102 26.825 5.05573C26.4645 4.4322 26.0815 3.85639 25.6655 3.33994Z" fill="#00741D"/>
<path d="M26.4666 2.80195C26.1956 2.97529 25.9285 3.15456 25.6653 3.33964C26.0815 3.8561 26.4643 4.43191 26.8262 5.0566C27.1168 4.79119 27.4132 4.53218 27.715 4.27974C27.3228 3.73593 26.9056 3.23723 26.4669 2.80166" fill="#00741D"/>
<path d="M69.88 0.00320057C66.2803 13.9766 58.7618 25.1998 52.4582 28.0294H52.4466C52.3319 28.0818 52.2183 28.1295 52.1061 28.1758C52.0905 28.1854 52.0763 28.1865 52.0645 28.1921C52.0315 28.2054 52.0009 28.2159 51.9677 28.2293C51.952 28.2386 51.9382 28.2418 51.924 28.2473C51.8708 28.2665 51.8188 28.2825 51.7668 28.3035C51.7442 28.3131 51.7231 28.3189 51.7017 28.3265C51.6762 28.3364 51.6501 28.3449 51.6237 28.3521C51.6 28.3614 51.5751 28.3684 51.5479 28.3789C51.5254 28.3882 51.5017 28.3922 51.4806 28.4015C51.4343 28.4149 51.3921 28.4263 51.3459 28.4423C51.3268 28.4423 51.3092 28.4528 51.2892 28.458C51.2606 28.4673 51.2285 28.474 51.1979 28.4827C51.1768 28.492 51.1591 28.4952 51.1366 28.4999C51.1048 28.5092 51.0693 28.5179 51.0372 28.5255L50.9166 28.5523C51.2053 28.6594 51.5108 28.7134 51.8185 28.7117C57.7957 28.7117 63.8221 17.9299 73.7939 0H69.8785L69.88 0.00320057Z" fill="#00741D"/>
<path d="M18.905 1.1912C18.9087 1.1912 18.9136 1.18188 18.9156 1.18188C18.9206 1.18188 18.9278 1.18188 18.9301 1.17257H18.9376C18.9706 1.16094 19.0012 1.14784 19.0345 1.13533C19.0431 1.13533 19.0475 1.13533 19.0535 1.12602C19.0619 1.12602 19.07 1.11642 19.0784 1.11525C19.1137 1.10391 19.1492 1.09052 19.1825 1.0783H19.1879C19.2671 1.05444 19.3406 1.02477 19.4172 0.997125C19.4282 0.997125 19.4386 0.987814 19.4516 0.987814C19.4834 0.977339 19.5166 0.965992 19.5498 0.958427C19.5652 0.948825 19.5805 0.948825 19.5947 0.943879C19.6288 0.933695 19.662 0.922057 19.6938 0.914492C19.7083 0.914492 19.721 0.90489 19.7317 0.904017C19.8415 0.873466 19.9505 0.844952 20.0603 0.818475C20.0757 0.818475 20.0887 0.808873 20.1051 0.808C20.1369 0.798689 20.1667 0.793452 20.2011 0.788797C20.2153 0.779486 20.2317 0.779486 20.2482 0.77454C20.28 0.765229 20.3109 0.764065 20.3453 0.7565H20.3676C20.4341 0.742825 20.5014 0.731768 20.5676 0.719257H20.6078C20.6396 0.709946 20.6679 0.708783 20.7 0.702963C20.7174 0.702963 20.7353 0.693653 20.7521 0.693653C20.7815 0.693653 20.811 0.684051 20.8405 0.680268C20.8561 0.680268 20.8712 0.680268 20.8891 0.670667C20.9587 0.661356 21.0307 0.657573 21.1041 0.651754C20.8928 0.63037 20.6806 0.619204 20.4682 0.618294C13.7371 0.618294 4.46281 13.1898 0.285278 29.4702H1.09032C2.42723 27.0704 3.62829 24.8 4.72672 22.6688C7.65233 11.1371 13.6116 3.27302 18.9052 1.18945" fill="#00741D"/>
<path d="M22.694 5.82329C23.4223 5.12168 24.1878 4.46023 24.9871 3.84185C24.8246 3.47786 24.6423 3.12313 24.4411 2.77926C23.8254 3.53139 23.2626 4.52386 22.694 5.82329Z" fill="#00741D"/>
<path d="M23.247 1.28663C23.6863 1.65789 24.0803 2.16824 24.4408 2.78013C24.5544 2.63959 24.6691 2.50982 24.7882 2.38849C24.2882 1.91859 23.7482 1.53307 23.1617 1.24269C23.1854 1.25578 23.2091 1.26655 23.2337 1.27702C23.2337 1.27702 23.2429 1.28663 23.247 1.28663Z" fill="#00741D"/>
<path d="M4.72614 22.6702C10.8641 10.765 13.7721 3.23025 18.9049 1.19061C13.6125 3.27564 7.65203 11.1397 4.72642 22.6702" fill="#00741D"/>
<path d="M24.7879 2.38821C24.6686 2.5107 24.5552 2.63931 24.4405 2.77984C24.6418 3.12373 24.8245 3.47835 24.9877 3.84214C25.2108 3.67117 25.4367 3.50385 25.6652 3.34023C25.3953 3.00265 25.1021 2.68453 24.7879 2.38821Z" fill="#00741D"/>
<path d="M7.51274 29.4182C7.47487 29.4278 7.437 29.4278 7.40145 29.4315H7.38035C7.34826 29.4315 7.31502 29.4411 7.28553 29.4411H7.27021C7.19332 29.4505 7.11759 29.4505 7.04445 29.4563H7.02075C13.233 29.2814 16.0725 26.1507 17.4819 21.6099C18.5529 18.1676 19.4322 15.2676 20.2032 12.8343C17.601 16.5207 14.9873 20.9151 12.3594 25.8379C11.0922 28.2104 9.16531 29.2014 7.51245 29.4138" fill="#00741D"/>
<path d="M7.51268 29.4158C9.16525 29.204 11.0921 28.2142 12.3594 25.8399C14.9873 20.9186 17.6024 16.5231 20.2017 12.8366C21.1475 9.84844 21.9279 7.56149 22.694 5.82067C17.5125 10.785 12.3108 19.0396 7.51239 29.4135" fill="#00741D"/>
<path d="M4.72613 22.6705C3.62769 24.8015 2.42664 27.0719 1.08972 29.472H3.43142C3.72715 27.1811 4.1595 24.9103 4.72613 22.6717" fill="#00741D"/>
<path d="M20.8888 0.676776C20.8697 0.676776 20.8556 0.686087 20.8391 0.686087C20.8107 0.695689 20.7813 0.695689 20.7515 0.698598C20.7341 0.698598 20.7174 0.698598 20.6995 0.7082C20.6677 0.717511 20.6382 0.718384 20.6073 0.724494C20.5931 0.724494 20.5789 0.724494 20.5671 0.733805C20.4997 0.745152 20.4335 0.757663 20.3676 0.769011H20.3451C20.3107 0.778612 20.2797 0.783559 20.2479 0.788214C20.2315 0.797525 20.215 0.797525 20.1994 0.801307C20.1676 0.810909 20.1358 0.814692 20.1049 0.820511C20.0884 0.829822 20.0754 0.829822 20.0601 0.830694C19.9502 0.857463 19.8412 0.885977 19.7314 0.916528C19.7198 0.916528 19.7077 0.925839 19.6935 0.927875C19.6606 0.937186 19.6285 0.946788 19.5941 0.957262C19.5799 0.966864 19.5634 0.966864 19.5493 0.970647C19.5163 0.979824 19.4836 0.989621 19.451 1.00003C19.4383 1.00003 19.4276 1.00934 19.4157 1.00934C19.34 1.03786 19.2654 1.06666 19.1874 1.09023C19.1544 1.10071 19.1189 1.11409 19.0833 1.1266C19.0691 1.13591 19.0564 1.13824 19.04 1.14464C19.0067 1.15512 18.9735 1.1685 18.9428 1.18072C18.9313 1.19032 18.9191 1.19119 18.911 1.19614C13.7781 3.23578 10.8699 10.7702 4.73223 22.6754C4.16509 24.914 3.73283 27.185 3.43781 29.4761H3.76647C4.69205 29.4761 4.95336 29.4665 6.01827 29.4665H7.05051C7.12364 29.4572 7.19938 29.4572 7.27598 29.451H7.29043C7.32223 29.451 7.35402 29.4417 7.38495 29.4417H7.4075C7.44161 29.4417 7.48063 29.4324 7.5185 29.4283C12.3169 19.0544 17.5183 10.7999 22.7001 5.83551C23.2695 4.53637 23.8312 3.5439 24.446 2.79293C24.0864 2.18133 23.6927 1.66983 23.253 1.29856C23.253 1.29856 23.2412 1.29856 23.2403 1.28896C23.2152 1.27877 23.1918 1.26626 23.1669 1.25404C23.142 1.24037 23.1206 1.22989 23.0946 1.2168C23.0705 1.20656 23.0468 1.1951 23.0238 1.18247C22.9932 1.17286 22.9683 1.15948 22.9411 1.14726C22.9186 1.13766 22.8986 1.12806 22.8761 1.11875C22.8303 1.10086 22.785 1.08174 22.7402 1.06143C22.72 1.05212 22.7012 1.04688 22.6824 1.0396C22.648 1.027 22.614 1.01342 22.5804 0.99887C22.5639 0.989268 22.5451 0.987231 22.526 0.980539C22.4778 0.964245 22.4304 0.947079 22.3856 0.931949H22.3737C22.3194 0.913909 22.2662 0.900525 22.2107 0.885395C22.1977 0.875793 22.187 0.875793 22.174 0.873757C22.1254 0.860663 22.0829 0.84757 22.037 0.835059C22.0254 0.835059 22.0144 0.825457 22.0052 0.825457C21.8921 0.796305 21.778 0.771266 21.6632 0.750389C21.6516 0.750389 21.6398 0.740788 21.6279 0.740788C21.579 0.731 21.5297 0.723042 21.4802 0.716929C21.4681 0.707618 21.4611 0.707618 21.4507 0.707618C21.3925 0.698638 21.3341 0.690974 21.2756 0.684632H21.2449C21.1975 0.675321 21.1539 0.674449 21.1102 0.669502C21.0356 0.678813 20.9648 0.682886 20.8949 0.689578" fill="#00741D"/>
<path d="M55.8191 7.73897C54.6383 11.5468 53.6818 14.688 52.8495 17.2726C56.0899 12.7842 59.2818 7.13784 62.3213 0.62207C58.7759 1.74285 56.8843 4.30854 55.8191 7.73897Z" fill="#00741D"/>
<path d="M52.9525 27.7914C52.7871 27.8764 52.6215 27.957 52.4582 28.0294C58.7618 25.1998 66.2803 13.9766 69.88 0.00320435H69.1504C60.8803 14.8736 58.2204 24.8286 52.9525 27.7914Z" fill="#00741D"/>
<path d="M48.8365 26.5423C50.2078 24.8573 51.3251 21.9931 52.8502 17.2726C51.0909 19.705 49.3201 21.7956 47.5479 23.5009C47.5479 23.5102 47.5479 23.5102 47.5386 23.516C47.9251 24.6822 48.3495 25.7113 48.8331 26.542" fill="#00741D"/>
<path d="M48.8365 26.5423C48.3697 27.1155 47.8754 27.5525 47.3256 27.8761C47.2051 27.9465 47.0834 28.0128 46.9594 28.0739C47.5558 28.399 48.2086 28.6062 48.8825 28.6841C48.9865 28.6945 49.0895 28.7042 49.197 28.7117H49.2161C49.2643 28.7117 49.3152 28.7117 49.3672 28.721H49.8803C49.8991 28.721 49.9188 28.721 49.9379 28.7117C49.9746 28.7117 50.0133 28.7117 50.0512 28.7021H50.1072C50.146 28.7021 50.1885 28.6928 50.2301 28.6887H50.2393C50.2518 28.6887 50.2651 28.6794 50.2772 28.6794C50.3206 28.6698 50.3662 28.666 50.4084 28.6593H50.4475C50.4955 28.65 50.5455 28.6439 50.5949 28.6346H50.6189C50.718 28.6154 50.8149 28.5968 50.9132 28.5718C50.0997 28.2721 49.4187 27.565 48.8325 26.5583" fill="#00741D"/>
<path d="M37.2156 28.721C37.8056 28.721 38.4014 28.6628 38.9997 28.5473C39.553 28.4464 40.1074 28.2913 40.663 28.0963C41.1263 28.3254 41.6169 28.4938 42.1228 28.5974C42.5329 28.6808 42.9504 28.7222 43.3689 28.721H37.2156Z" fill="#00741D"/>
<path d="M43.3689 28.721C44.8255 28.721 45.9792 28.5473 46.9591 28.0736C47.5556 28.399 48.2085 28.6063 48.8825 28.6844C48.9866 28.6945 49.0895 28.7042 49.197 28.7117H49.2161C49.2643 28.7117 49.3152 28.7117 49.3673 28.7213H49.5442H43.3649L43.3689 28.721Z" fill="#00741D"/>
<path d="M49.5476 28.721H49.8847C49.9046 28.721 49.9234 28.721 49.9425 28.7117C49.9792 28.7117 50.0179 28.7117 50.0572 28.7021H50.113C50.1517 28.7021 50.1942 28.6928 50.2347 28.689H50.2451C50.2575 28.689 50.2697 28.6797 50.2821 28.6797C50.3255 28.6701 50.3709 28.6663 50.4131 28.6593C50.4275 28.6593 50.4388 28.6593 50.4538 28.65C50.5021 28.6407 50.5521 28.6358 50.6018 28.6265H50.6255C50.7247 28.6073 50.8215 28.5883 50.9195 28.5636C51.2082 28.6707 51.5137 28.7247 51.8214 28.7231L49.5493 28.7324L49.5476 28.721Z" fill="#00741D"/>
<path d="M47.5424 23.5163V23.5067C46.9208 24.1077 46.2724 24.6798 45.599 25.2213C45.2678 25.4868 44.9292 25.7428 44.5836 25.9889C44.8683 26.3317 45.1579 26.6529 45.4632 26.9459C45.9265 27.3977 46.4217 27.7786 46.962 28.0725C47.0851 28.0114 47.2077 27.945 47.3273 27.8749C47.878 27.5514 48.3723 27.1146 48.8391 26.5411C48.3558 25.7105 47.9315 24.6813 47.5447 23.5152" fill="#00741D"/>
<path d="M66.8405 0.00320435H63.1691C62.9708 0.012806 62.778 0.0194981 62.5878 0.0317185C62.4979 0.225789 62.4057 0.41986 62.3169 0.615095C59.2777 7.13087 56.0859 12.7773 52.8455 17.2656C51.3216 21.9859 50.2035 24.8501 48.8322 26.535C49.4184 27.5418 50.1006 28.2497 50.9114 28.5497C50.9351 28.5401 50.9542 28.54 50.9753 28.5351H50.9886C51.0027 28.5351 51.018 28.5258 51.0334 28.5258C51.0663 28.5162 51.1019 28.5104 51.1351 28.5002C51.1562 28.4906 51.1738 28.4897 51.1952 28.4827C51.2262 28.4734 51.258 28.4667 51.2863 28.4592C51.3054 28.4496 51.3242 28.4467 51.343 28.4429C51.3904 28.4274 51.4328 28.4161 51.4779 28.4018C51.499 28.3925 51.5216 28.3844 51.5453 28.3789C51.5713 28.3695 51.5973 28.3629 51.621 28.3515C51.6482 28.3419 51.6754 28.337 51.6991 28.3268C51.7202 28.3172 51.7424 28.3114 51.7627 28.3029C51.8159 28.2837 51.8679 28.2677 51.9211 28.2468C51.9355 28.2468 51.9497 28.2334 51.965 28.2305C51.9968 28.2171 52.0301 28.2066 52.0619 28.1924C52.0734 28.1827 52.0879 28.1819 52.1032 28.1769C52.2145 28.1304 52.3289 28.0827 52.4437 28.0306H52.4556C52.6221 27.9559 52.7866 27.8766 52.9487 27.7926C58.2174 24.8297 60.8777 14.8748 69.1478 0.00436819H66.8379L66.8407 0.00320435H66.8405Z" fill="#00741D"/>
<path d="M21.1041 0.656698C21.1171 0.656698 21.129 0.656698 21.1417 0.666009C21.1738 0.666009 21.2059 0.666009 21.2377 0.676483H21.2695C21.3276 0.685794 21.3854 0.691031 21.4446 0.699469C21.4553 0.699469 21.4649 0.699469 21.4741 0.70878C21.5227 0.718091 21.5724 0.726237 21.6218 0.733511C21.6325 0.733511 21.6467 0.743113 21.6585 0.743113C21.7721 0.765808 21.8881 0.789667 21.9991 0.819054C22.0095 0.819054 22.0205 0.828656 22.0297 0.828656C22.0771 0.840003 22.1196 0.85426 22.167 0.867644C22.1815 0.867644 22.1916 0.876955 22.2046 0.879283C22.2604 0.89354 22.3124 0.907797 22.3665 0.925836C22.3691 0.925836 22.3722 0.925836 22.3786 0.935147C22.4249 0.949404 22.472 0.967444 22.5202 0.983738C22.5396 0.993048 22.5572 0.997122 22.5749 1.00178C22.6081 1.01633 22.6448 1.03029 22.6766 1.04368C22.6954 1.04368 22.7142 1.05706 22.7344 1.06404C22.7781 1.08383 22.824 1.10187 22.8691 1.12078C22.8928 1.13038 22.9128 1.14115 22.9356 1.14959C22.9616 1.16297 22.9885 1.17519 23.0169 1.1845C23.0406 1.19614 23.0666 1.20836 23.0891 1.21883C23.114 1.23251 23.1374 1.24269 23.1614 1.25608C23.7476 1.54646 24.2879 1.93314 24.7879 2.40217C24.967 2.21238 25.1598 2.03616 25.3646 1.87495C24.2711 1.09401 23.0325 0.648842 21.603 0.648842C21.4374 0.648842 21.2721 0.658444 21.1041 0.670955" fill="#00741D"/>
<path d="M24.788 2.38821C25.1021 2.68453 25.3953 3.00265 25.6653 3.34023C25.9281 3.15451 26.1953 2.97503 26.4665 2.80195C26.1263 2.45709 25.7574 2.14218 25.3638 1.86069C25.1589 2.0216 24.9664 2.19784 24.788 2.38792" fill="#00741D"/>
<path d="M21.1039 0.656407C21.2715 0.64215 21.4372 0.63604 21.6028 0.63604C23.0319 0.63604 24.2708 1.08121 25.3644 1.86098C26.5183 0.944458 27.913 0.624402 29.8506 0.624402H20.4677C20.6844 0.624402 20.8958 0.637495 21.1039 0.656407Z" fill="#00741D"/>
<path d="M29.8506 0.624398C27.913 0.624398 26.5183 0.944455 25.3643 1.86098C25.7574 2.14267 26.126 2.45746 26.4662 2.80195C28.0725 1.77398 29.6638 1.09314 31.2329 0.795774C31.8208 0.683229 32.4179 0.625857 33.0164 0.624398H29.8506Z" fill="#00741D"/>
<path d="M52.8495 17.2749C53.6829 14.6883 54.6371 11.5479 55.8202 7.73897C56.8869 4.30709 58.7744 1.74169 62.3198 0.622071C62.4135 0.430328 62.5019 0.232766 62.593 0.0389862C56.8134 0.387557 54.1122 3.34692 52.7527 7.72937C50.3754 15.3805 48.9353 20.3402 47.5487 23.5006C49.3198 21.7967 51.0906 19.7047 52.8495 17.2749Z" fill="#00741D"/>
<path d="M61.3289 26.6828H60.6739V28.7321H60.4068V26.6828H59.7492V26.439H61.3286L61.3289 26.6828ZM64.0106 28.7315H63.7446V27.1917C63.7446 27.0704 63.7539 26.9217 63.7663 26.7466C63.7388 26.8513 63.7163 26.924 63.6955 26.9706L62.9199 28.7315H62.7899L62.0123 26.9837C61.9892 26.9351 61.9666 26.8563 61.942 26.7468H61.9328C61.942 26.8391 61.9452 26.9883 61.9452 27.1955V28.7318H61.6897V26.4387H62.0421L62.7407 28.039C62.7936 28.1592 62.8269 28.252 62.8436 28.314H62.8537C62.9 28.1877 62.9381 28.0937 62.9636 28.0317L63.6767 26.4387H64.0123V28.7315H64.0106Z" fill="#00741D"/>
</g>
<defs>
<clipPath id="clip0_9_86">
<rect width="74" height="71" fill="white"/>
</clipPath>
</defs>
</svg>
