<svg width="65" height="65" viewBox="0 0 65 65" fill="none" xmlns="http://www.w3.org/2000/svg">
<g clip-path="url(#clip0_6_2)">
<path fill-rule="evenodd" clip-rule="evenodd" d="M58.4838 29.2734C55.445 32.4459 50.1613 37.9616 46.7423 41.5303L40.5261 48.0187L40.6811 48.0402C41.0309 48.0888 55.6699 48.0703 56.0638 48.0207C60.7081 47.4372 63.7567 43.8482 64.8796 37.6417L64.9838 37.0662V32.4025V27.7387L64.9103 27.2925C64.8 26.6219 64.6815 25.993 64.5903 25.5937C64.4499 24.9801 64.2785 24.33 64.2333 24.2409C64.2096 24.1941 64.1969 24.149 64.2051 24.1407C64.2182 24.1277 64.1284 23.8329 64.0686 23.6925C64.057 23.6657 64.0422 23.6153 64.0356 23.5807C64.0289 23.5461 64.0201 23.5149 64.0161 23.5113C64.012 23.5077 61.5225 26.1007 58.4838 29.2734ZM37.3175 50.3093L38.3162 50.3262L31.701 57.231C24.6313 64.6103 25.0541 64.15 25.2952 64.2024C25.6537 64.2803 26.1802 64.383 26.3105 64.4005C26.3989 64.4122 26.4796 64.427 26.4898 64.433C26.5 64.439 26.5805 64.4538 26.6685 64.4657C26.8291 64.4873 26.8887 64.4972 27.04 64.5278C29.9783 65.1222 36.4962 65.0242 40.0805 64.3318C44.6219 63.4545 47.4546 61.6457 48.2264 59.13C48.4268 58.4774 48.4112 58.9316 48.4006 54.0394L48.3925 50.2775L42.3556 50.285C39.0354 50.289 36.7682 50.2999 37.3175 50.3093ZM42.445 54.3783C45.1386 55.328 45.0018 59.0762 42.2471 59.8031C40.3928 60.2924 38.5375 58.6573 38.7701 56.739C38.9836 54.9765 40.8116 53.8024 42.445 54.3783ZM23.8875 63.8425C23.8875 63.8493 23.9241 63.8618 23.9688 63.8705C24.0134 63.8791 24.05 63.8734 24.05 63.8579C24.05 63.8427 24.0134 63.83 23.9688 63.83C23.9241 63.83 23.8875 63.8357 23.8875 63.8425Z" fill="#00741D"/>
<path fill-rule="evenodd" clip-rule="evenodd" d="M50.4719 20.3694C50.4714 22.5457 50.4632 24.4579 50.4537 24.6187C50.1761 29.3057 47.6574 32.4488 43.5663 33.2134C42.5841 33.397 42.9286 33.3882 35.9775 33.4085C32.4472 33.4189 30.0745 33.4308 30.7047 33.435L31.8508 33.4425L29.1772 36.2331C27.7069 37.7681 24.3466 41.2755 21.71 44.0276L16.9163 49.0314L16.8997 48.2488C16.8904 47.8184 16.8758 49.5649 16.8672 52.13C16.8584 54.695 16.8621 56.9371 16.8755 57.1121C17.0622 59.5572 18.9628 61.834 21.8725 63.0978C22.2425 63.2585 22.5373 63.38 22.5875 63.3929C22.6143 63.3995 22.8158 63.4715 23.0354 63.5526C23.2549 63.6337 23.4637 63.7 23.4996 63.7C23.5355 63.7 23.6039 63.7257 23.6517 63.7569C23.7195 63.8012 23.7323 63.803 23.7094 63.765C23.6841 63.7229 23.6876 63.7224 23.7351 63.7608C23.7653 63.7853 23.79 63.7934 23.79 63.7786C23.79 63.764 23.8076 63.7695 23.829 63.791C23.8505 63.8124 23.909 63.83 23.959 63.83C24.0091 63.83 24.05 63.8441 24.05 63.8615C24.05 63.8787 24.0719 63.8846 24.0988 63.8742C24.1256 63.8639 24.1475 63.8693 24.1475 63.8864C24.1475 63.9194 24.4944 64.0135 24.5619 63.9987C24.5841 63.9936 24.6025 64.0039 24.6025 64.0214C24.6025 64.039 24.6391 64.0466 24.6838 64.0385C24.7314 64.0299 24.765 64.039 24.765 64.0606C24.765 64.0812 24.793 64.0903 24.8284 64.0811C24.8633 64.0718 24.8963 64.0778 24.9018 64.0942C24.9605 64.27 24.8427 64.389 31.6994 57.2325L38.3162 50.3262L37.2037 50.3066C36.5919 50.2957 35.2979 50.2846 34.3281 50.2822L32.565 50.2775V49.1725V48.0675L36.6844 48.0626C38.9501 48.0599 40.7412 48.049 40.6647 48.0382L40.5256 48.0187L46.6598 41.6162C50.0336 38.0949 55.3144 32.5829 58.395 29.3673C62.5749 25.0042 63.9902 23.5076 63.9737 23.4686C63.9613 23.4398 63.9524 23.3904 63.9537 23.3587C63.955 23.327 63.9423 23.3096 63.9256 23.3199C63.9088 23.3303 63.8939 23.3197 63.8926 23.2963C63.8911 23.2729 63.8848 23.2318 63.8781 23.205C63.8716 23.1782 63.8588 23.1218 63.8493 23.0799C63.8401 23.0378 63.8155 22.9829 63.7947 22.958C63.7739 22.933 63.7676 22.9125 63.7804 22.9125C63.7934 22.9125 63.7731 22.8605 63.7356 22.7968C63.6981 22.7331 63.6836 22.691 63.7033 22.7034C63.7231 22.7155 63.7166 22.6908 63.6888 22.6484C63.6608 22.606 63.6355 22.5566 63.6322 22.5387C63.6202 22.4737 63.5562 22.3423 63.5068 22.2813C63.4637 22.228 63.4636 22.2228 63.505 22.2462C63.5373 22.2644 63.5334 22.2506 63.4936 22.2051C63.4606 22.1674 63.4433 22.1211 63.455 22.1021C63.4667 22.0831 63.4608 22.0675 63.442 22.0675C63.4229 22.0675 63.4075 22.0482 63.4075 22.0244C63.4075 21.8696 62.6246 20.4799 62.2508 19.9712C62.172 19.864 62.0864 19.747 62.0604 19.7112C61.9869 19.6103 61.8501 19.4433 61.622 19.1763C60.6593 18.0497 59.3463 17.159 58.0288 16.7386C57.0034 16.4115 57.0339 16.4138 53.5194 16.4131L50.4725 16.4125L50.4719 20.3694Z" fill="#00741D"/>
<path fill-rule="evenodd" clip-rule="evenodd" d="M30.0788 0.0349346C23.2244 0.367085 18.8533 2.07496 17.3375 5.01328C16.836 5.98536 16.8201 6.12446 16.8461 9.27875C16.8578 10.6909 16.8674 12.4715 16.8674 13.2356L16.8675 14.625H24.7616C31.9298 14.625 32.6573 14.6297 32.6754 14.6763C32.6861 14.7046 32.695 15.2056 32.695 15.7895V16.8512H21.0194C9.95104 16.8512 9.32427 16.8543 8.97002 16.9096C4.09242 17.6704 0.980546 21.7997 0.196484 28.5512C-0.0657912 30.809 -0.0651412 34.0914 0.197784 36.4487C0.467046 38.8638 0.961046 40.89 1.69896 42.6075C1.93816 43.1642 2.53567 44.2934 2.6075 44.3246C2.62131 44.3305 2.63252 44.3534 2.63252 44.3753C2.63252 44.3973 2.66015 44.445 2.69411 44.4813C2.72791 44.5177 2.77942 44.5936 2.80867 44.65C2.83776 44.7064 2.87676 44.7525 2.89528 44.7525C2.91381 44.7525 2.91966 44.7673 2.90861 44.7853C2.8974 44.8034 2.93315 44.863 2.98791 44.9179C3.04267 44.9727 3.08752 45.0378 3.08752 45.0627C3.08752 45.0877 3.13075 45.1401 3.18372 45.1792C3.2367 45.2184 3.27261 45.2621 3.26367 45.2766C3.25473 45.291 3.27732 45.3216 3.31372 45.3443C3.35028 45.3671 3.38002 45.3975 3.38002 45.4119C3.38002 45.4264 3.43495 45.4886 3.5019 45.5502C3.56901 45.6118 3.61207 45.6623 3.59777 45.6623C3.58347 45.6625 3.60882 45.6968 3.654 45.7389C3.69933 45.7808 3.72696 45.8247 3.71526 45.8364C3.70372 45.8479 3.71948 45.8575 3.7502 45.8575C3.78107 45.8575 3.79846 45.8702 3.78903 45.8856C3.77945 45.9012 3.80382 45.9413 3.84331 45.975C3.91432 46.0354 3.91448 46.0354 3.86703 45.9712C3.82235 45.9111 3.823 45.9095 3.87565 45.9508C3.90701 45.9753 3.93252 46.012 3.93252 46.0322C3.93252 46.0525 3.97298 46.1071 4.02222 46.1537L4.11208 46.2384L13.6705 36.7123C18.9277 31.473 28.4666 21.9663 34.8683 15.5863C41.2698 9.20627 46.5075 3.97085 46.5075 3.95183C46.5075 3.91478 46.2153 3.63057 46.2145 3.66697C46.2142 3.679 46.196 3.65381 46.1739 3.61091C46.1518 3.56817 46.0897 3.50967 46.0358 3.48091C45.9493 3.43492 45.8819 3.37951 45.6268 3.14437C45.5928 3.11301 45.565 3.09335 45.565 3.1005C45.565 3.10765 45.5195 3.07108 45.4641 3.01925C45.4085 2.96741 45.3427 2.925 45.3179 2.925C45.2928 2.925 45.2725 2.9107 45.2725 2.89331C45.2725 2.87592 45.2264 2.83773 45.17 2.80865C45.1136 2.7794 45.0514 2.74235 45.0319 2.7261C44.6029 2.37022 43.2627 1.72087 42.1363 1.32323C39.2236 0.295097 34.6959 -0.188665 30.0788 0.0349346ZM24.336 5.10542C26.2244 5.53702 27.1042 7.78846 26.0211 9.41752C25.0551 10.8708 22.9496 11.0944 21.7125 9.87512C19.6666 7.85898 21.5335 4.46485 24.336 5.10542Z" fill="#00741D"/>
<path fill-rule="evenodd" clip-rule="evenodd" d="M45.8622 3.36326C45.9622 3.46856 46.008 3.46904 45.9165 3.36374C45.8777 3.31906 45.8323 3.28249 45.8158 3.28249C45.7992 3.28249 45.8202 3.31873 45.8622 3.36326ZM43.5338 6.94183C41.8893 8.58812 32.3502 18.1002 22.3357 28.0802C12.3211 38.0599 4.12754 46.2324 4.12754 46.2412C4.12754 46.265 4.48617 46.6053 4.64786 46.735C4.72602 46.7976 4.83652 46.889 4.89356 46.9381C4.95076 46.9872 5.00699 47.0275 5.01885 47.0275C5.03055 47.0275 5.07247 47.0577 5.11196 47.0948C5.5122 47.4703 6.83381 48.0911 7.7014 48.3109C8.48416 48.5093 8.43167 48.5071 12.0169 48.4975L14.7875 48.49L14.7879 44.4031C14.788 40.3504 14.7966 39.9646 14.9032 39.2112C14.963 38.7889 15.1567 37.8917 15.2453 37.6277C15.2796 37.5253 15.3127 37.4156 15.3189 37.3839C15.3251 37.3522 15.347 37.2851 15.3675 37.2348C15.3881 37.1844 15.405 37.1332 15.4049 37.121C15.4047 37.0937 15.5844 36.632 15.6732 36.4325C15.8859 35.9536 16.2175 35.3473 16.4691 34.9778C16.5453 34.8658 16.6075 34.761 16.6075 34.7449C16.6075 34.7287 16.6202 34.7105 16.6358 34.7046C16.6514 34.6986 16.7718 34.5621 16.9034 34.4012C17.4486 33.735 18.0772 33.1898 18.785 32.7689C18.9727 32.6573 19.1409 32.5541 19.1588 32.5393C19.1767 32.5247 19.2059 32.5096 19.2238 32.5058C19.3201 32.486 19.37 32.4592 19.37 32.4274C19.37 32.4077 19.3791 32.4009 19.3903 32.4121C19.4016 32.4233 19.4565 32.408 19.5122 32.3783C19.7469 32.253 20.6067 31.9308 20.8 31.8955C20.8447 31.8872 20.9032 31.8714 20.93 31.8604C21.0149 31.8251 21.25 31.772 21.6938 31.6875C22.6922 31.4977 22.9038 31.4935 31.7875 31.493C40.3931 31.4925 40.2783 31.4943 41.1741 31.3438C44.6831 30.7547 47.1343 28.7872 47.9834 25.8776C48.4013 24.4457 48.3984 24.5212 48.3847 15.0962L48.3737 7.52374L48.3033 7.20524C48.09 6.23902 47.6406 5.25313 47.1278 4.62604C47.0816 4.56949 46.9999 4.46858 46.9463 4.40179C46.8927 4.33484 46.7757 4.20549 46.6863 4.11449L46.5238 3.94874L43.5338 6.94183ZM21.6432 5.87437L21.5313 5.99624L21.6532 5.88428C21.7666 5.77996 21.79 5.75249 21.7651 5.75249C21.7598 5.75249 21.7048 5.80742 21.6432 5.87437ZM32.6625 15.7615V16.8329L32.2807 16.8433L31.8988 16.8535L32.2969 16.8605L32.695 16.8675V15.7787C32.695 15.1799 32.6877 14.69 32.6788 14.69C32.6698 14.69 32.6625 15.1721 32.6625 15.7615ZM3.43805 45.5193C3.47932 45.5965 3.56984 45.6786 3.5908 45.6576C3.59844 45.6498 3.55927 45.6004 3.50337 45.5478C3.42927 45.4777 3.41156 45.4701 3.43805 45.5193Z" fill="#00741D"/>
<path fill-rule="evenodd" clip-rule="evenodd" d="M24.9438 33.4464C20.3289 33.9183 17.3004 36.6372 16.9481 40.625C16.9363 40.7591 16.9181 40.9053 16.9078 40.95C16.8774 41.0803 16.8643 46.7426 16.8916 47.9401L16.9163 49.0314L21.71 44.0277C24.3466 41.2756 27.7047 37.7704 29.1724 36.2383L31.8409 33.4527L30.0174 33.4305C27.7737 33.403 25.2923 33.4108 24.9438 33.4464Z" fill="#00741D"/>
</g>
<defs>
<clipPath id="clip0_6_2">
<rect width="65" height="65" fill="white"/>
</clipPath>
</defs>
</svg>
