<svg width="93" height="93" viewBox="0 0 93 93" fill="none" xmlns="http://www.w3.org/2000/svg">
<g clip-path="url(#clip0_9_127)">
<g filter="url(#filter0_d_9_127)">
<mask id="path-1-inside-1_9_127" fill="white">
<path d="M74.5925 32.8261C73.6638 32.5088 72.7283 32.2134 71.7862 31.9397C71.9424 31.3039 72.0865 30.6646 72.2185 30.0216C74.3437 19.6862 72.9541 11.3598 68.2115 8.61885C63.6705 5.98869 56.2232 8.72965 48.7106 15.2832C47.9719 15.9299 47.2484 16.5959 46.54 17.2813C46.0677 16.826 45.5833 16.3804 45.0868 15.9444C37.2127 8.93672 29.3204 5.98506 24.5832 8.7351C20.0422 11.3707 18.6926 19.1976 20.6053 28.9935C20.7966 29.9622 21.0116 30.9267 21.2501 31.887C20.133 32.2049 19.0541 32.5446 18.0224 32.9042C8.80231 36.1283 2.90625 41.1834 2.90625 46.4255C2.90625 51.8421 9.23461 57.2731 18.8488 60.5663C19.6287 60.8315 20.4158 61.0779 21.2102 61.3055C20.9522 62.3336 20.724 63.3732 20.5254 64.4243C18.709 74.0513 20.1258 81.6929 24.6577 84.3121C29.3386 87.0168 37.1909 84.2377 44.8453 77.5351C45.4507 77.0047 46.0562 76.4447 46.6617 75.8549C47.427 76.5948 48.2141 77.3129 49.023 78.0092C56.4339 84.3993 63.7522 86.9804 68.2769 84.3539C72.9541 81.6402 74.4745 73.43 72.5 63.4416C72.3487 62.6787 72.1743 61.9001 71.9769 61.1057C72.5291 60.9423 73.0698 60.7733 73.599 60.5989C83.5892 57.2804 90.0974 51.9147 90.0974 46.431C90.0937 41.1634 84.0088 36.0756 74.5925 32.8261ZM51.1609 18.0987C57.5964 12.4842 63.6124 10.2681 66.3551 11.8521C69.2741 13.5395 70.4094 20.3438 68.5748 29.2678C68.4537 29.849 68.3229 30.4284 68.1824 31.0061C64.3419 30.1325 60.4473 29.516 56.5247 29.1606C54.2788 25.9253 51.8168 22.8456 49.1556 19.9423C49.8071 19.3102 50.4743 18.6957 51.1573 18.0987H51.1609ZM28.6502 50.9048C29.4385 52.4306 30.2625 53.9376 31.1223 55.4258C31.9978 56.9443 32.9103 58.4405 33.8596 59.9142C31.1606 59.6207 28.4784 59.1884 25.8238 58.6191C26.594 56.127 27.5422 53.5386 28.6502 50.9048ZM28.6502 42.1261C27.5603 39.5486 26.6376 37.0129 25.8802 34.5644C28.3686 34.0068 31.0206 33.5508 33.7852 33.2057C32.8588 34.6516 31.9675 36.1186 31.1114 37.6069C30.2553 39.0951 29.433 40.6015 28.6447 42.1261H28.6502ZM30.6301 46.5163C31.778 44.1223 33.0144 41.7743 34.3392 39.4723C35.6627 37.1715 37.0716 34.9234 38.5659 32.728C41.1598 32.5318 43.819 32.4283 46.5054 32.4283C49.1919 32.4283 51.8675 32.5318 54.4595 32.7298C55.938 34.9204 57.3385 37.1606 58.6608 39.4505C59.9832 41.7404 61.2359 44.0775 62.419 46.4619C61.2516 48.8644 60.002 51.2221 58.6699 53.5349C57.3488 55.8357 55.9562 58.0905 54.4922 60.2992C51.9038 60.4809 49.2246 60.5808 46.5 60.5808C43.7754 60.5808 41.147 60.4954 38.6059 60.3301C37.1007 58.1274 35.6803 55.8696 34.3446 53.5567C33.0089 51.2439 31.7689 48.8971 30.6246 46.5163H30.6301ZM61.894 55.4004C62.772 53.877 63.6148 52.3337 64.4225 50.7704C65.5297 53.2808 66.507 55.8465 67.3505 58.4574C64.6647 59.0622 61.9491 59.526 59.2148 59.847C60.1376 58.3829 61.0306 56.9007 61.894 55.4004ZM64.3862 42.1279C63.5821 40.5961 62.7459 39.0824 61.8777 37.5869C61.03 36.112 60.1467 34.6552 59.2276 33.2166C62.0085 33.569 64.6768 34.0376 67.178 34.6098C66.3738 37.161 65.442 39.6702 64.3862 42.1279ZM46.5418 22.6106C48.3555 24.5925 50.0682 26.6646 51.6731 28.8191C48.2401 28.6556 44.8047 28.6556 41.3668 28.8191C43.0615 26.5777 44.7962 24.4979 46.5418 22.6106ZM26.4578 11.9629C29.3749 10.27 35.825 12.6894 42.6238 18.7326C43.0579 19.1195 43.4957 19.5246 43.9316 19.9441C41.2567 22.847 38.7773 25.9241 36.5098 29.1551C32.5959 29.5078 28.709 30.1145 24.8739 30.9715C24.6523 30.0803 24.4525 29.183 24.2745 28.2796C22.6306 19.8824 23.7186 13.5522 26.4578 11.9629ZM22.2056 57.709C21.479 57.502 20.7615 57.2773 20.0531 57.0352C15.8027 55.582 12.2916 53.6857 9.88125 51.6205C7.72336 49.7695 6.62988 47.9222 6.62988 46.4255C6.62988 43.245 11.3634 39.1871 19.2575 36.4353C20.2493 36.0902 21.2495 35.7747 22.2582 35.4889C23.4306 39.2567 24.8505 42.9429 26.5086 46.5236C24.8308 50.1538 23.3933 53.8903 22.2056 57.709ZM42.3913 74.7233C39.0073 77.6877 35.6179 79.7893 32.6299 80.8482C29.9453 81.7982 27.8074 81.8255 26.5159 81.0789C23.7659 79.4896 22.6215 73.3519 24.1818 65.12C24.3671 64.1512 24.579 63.1825 24.8176 62.2137C28.6911 63.0482 32.617 63.618 36.5679 63.9193C38.8576 67.1673 41.3574 70.2618 44.0515 73.183C43.5102 73.7152 42.9562 74.2274 42.3913 74.7233ZM46.6453 70.5056C44.8798 68.5966 43.1179 66.4841 41.3995 64.2136C43.0694 64.279 44.7696 64.3117 46.5 64.3117C48.2764 64.3117 50.0347 64.2735 51.7676 64.1954C50.1684 66.3845 48.4588 68.4906 46.6453 70.5056ZM69.2632 75.6987C68.7437 78.5033 67.6993 80.3742 66.4078 81.1225C63.6596 82.7173 57.7835 80.6448 51.4479 75.1792C50.7213 74.5544 49.9948 73.8841 49.2555 73.1812C51.8971 70.2486 54.3384 67.1415 56.5629 63.8812C60.5357 63.5446 64.4806 62.9347 68.3695 62.0557C68.5475 62.775 68.705 63.4798 68.8418 64.17C69.7155 68.5839 69.8408 72.5763 69.2632 75.6987ZM72.4238 57.0551C71.9479 57.2132 71.4574 57.3657 70.9597 57.5147C69.7403 53.7292 68.265 50.0309 66.544 46.4455C68.2004 42.9079 69.618 39.2633 70.7872 35.5362C71.679 35.7959 72.5455 36.0684 73.3792 36.3572C81.4477 39.1399 86.3701 43.2595 86.3701 46.4255C86.3701 49.804 81.0535 54.1888 72.4238 57.0551Z"/>
</mask>
<path d="M74.5925 32.8261C73.6638 32.5088 72.7283 32.2134 71.7862 31.9397C71.9424 31.3039 72.0865 30.6646 72.2185 30.0216C74.3437 19.6862 72.9541 11.3598 68.2115 8.61885C63.6705 5.98869 56.2232 8.72965 48.7106 15.2832C47.9719 15.9299 47.2484 16.5959 46.54 17.2813C46.0677 16.826 45.5833 16.3804 45.0868 15.9444C37.2127 8.93672 29.3204 5.98506 24.5832 8.7351C20.0422 11.3707 18.6926 19.1976 20.6053 28.9935C20.7966 29.9622 21.0116 30.9267 21.2501 31.887C20.133 32.2049 19.0541 32.5446 18.0224 32.9042C8.80231 36.1283 2.90625 41.1834 2.90625 46.4255C2.90625 51.8421 9.23461 57.2731 18.8488 60.5663C19.6287 60.8315 20.4158 61.0779 21.2102 61.3055C20.9522 62.3336 20.724 63.3732 20.5254 64.4243C18.709 74.0513 20.1258 81.6929 24.6577 84.3121C29.3386 87.0168 37.1909 84.2377 44.8453 77.5351C45.4507 77.0047 46.0562 76.4447 46.6617 75.8549C47.427 76.5948 48.2141 77.3129 49.023 78.0092C56.4339 84.3993 63.7522 86.9804 68.2769 84.3539C72.9541 81.6402 74.4745 73.43 72.5 63.4416C72.3487 62.6787 72.1743 61.9001 71.9769 61.1057C72.5291 60.9423 73.0698 60.7733 73.599 60.5989C83.5892 57.2804 90.0974 51.9147 90.0974 46.431C90.0937 41.1634 84.0088 36.0756 74.5925 32.8261ZM51.1609 18.0987C57.5964 12.4842 63.6124 10.2681 66.3551 11.8521C69.2741 13.5395 70.4094 20.3438 68.5748 29.2678C68.4537 29.849 68.3229 30.4284 68.1824 31.0061C64.3419 30.1325 60.4473 29.516 56.5247 29.1606C54.2788 25.9253 51.8168 22.8456 49.1556 19.9423C49.8071 19.3102 50.4743 18.6957 51.1573 18.0987H51.1609ZM28.6502 50.9048C29.4385 52.4306 30.2625 53.9376 31.1223 55.4258C31.9978 56.9443 32.9103 58.4405 33.8596 59.9142C31.1606 59.6207 28.4784 59.1884 25.8238 58.6191C26.594 56.127 27.5422 53.5386 28.6502 50.9048ZM28.6502 42.1261C27.5603 39.5486 26.6376 37.0129 25.8802 34.5644C28.3686 34.0068 31.0206 33.5508 33.7852 33.2057C32.8588 34.6516 31.9675 36.1186 31.1114 37.6069C30.2553 39.0951 29.433 40.6015 28.6447 42.1261H28.6502ZM30.6301 46.5163C31.778 44.1223 33.0144 41.7743 34.3392 39.4723C35.6627 37.1715 37.0716 34.9234 38.5659 32.728C41.1598 32.5318 43.819 32.4283 46.5054 32.4283C49.1919 32.4283 51.8675 32.5318 54.4595 32.7298C55.938 34.9204 57.3385 37.1606 58.6608 39.4505C59.9832 41.7404 61.2359 44.0775 62.419 46.4619C61.2516 48.8644 60.002 51.2221 58.6699 53.5349C57.3488 55.8357 55.9562 58.0905 54.4922 60.2992C51.9038 60.4809 49.2246 60.5808 46.5 60.5808C43.7754 60.5808 41.147 60.4954 38.6059 60.3301C37.1007 58.1274 35.6803 55.8696 34.3446 53.5567C33.0089 51.2439 31.7689 48.8971 30.6246 46.5163H30.6301ZM61.894 55.4004C62.772 53.877 63.6148 52.3337 64.4225 50.7704C65.5297 53.2808 66.507 55.8465 67.3505 58.4574C64.6647 59.0622 61.9491 59.526 59.2148 59.847C60.1376 58.3829 61.0306 56.9007 61.894 55.4004ZM64.3862 42.1279C63.5821 40.5961 62.7459 39.0824 61.8777 37.5869C61.03 36.112 60.1467 34.6552 59.2276 33.2166C62.0085 33.569 64.6768 34.0376 67.178 34.6098C66.3738 37.161 65.442 39.6702 64.3862 42.1279ZM46.5418 22.6106C48.3555 24.5925 50.0682 26.6646 51.6731 28.8191C48.2401 28.6556 44.8047 28.6556 41.3668 28.8191C43.0615 26.5777 44.7962 24.4979 46.5418 22.6106ZM26.4578 11.9629C29.3749 10.27 35.825 12.6894 42.6238 18.7326C43.0579 19.1195 43.4957 19.5246 43.9316 19.9441C41.2567 22.847 38.7773 25.9241 36.5098 29.1551C32.5959 29.5078 28.709 30.1145 24.8739 30.9715C24.6523 30.0803 24.4525 29.183 24.2745 28.2796C22.6306 19.8824 23.7186 13.5522 26.4578 11.9629ZM22.2056 57.709C21.479 57.502 20.7615 57.2773 20.0531 57.0352C15.8027 55.582 12.2916 53.6857 9.88125 51.6205C7.72336 49.7695 6.62988 47.9222 6.62988 46.4255C6.62988 43.245 11.3634 39.1871 19.2575 36.4353C20.2493 36.0902 21.2495 35.7747 22.2582 35.4889C23.4306 39.2567 24.8505 42.9429 26.5086 46.5236C24.8308 50.1538 23.3933 53.8903 22.2056 57.709ZM42.3913 74.7233C39.0073 77.6877 35.6179 79.7893 32.6299 80.8482C29.9453 81.7982 27.8074 81.8255 26.5159 81.0789C23.7659 79.4896 22.6215 73.3519 24.1818 65.12C24.3671 64.1512 24.579 63.1825 24.8176 62.2137C28.6911 63.0482 32.617 63.618 36.5679 63.9193C38.8576 67.1673 41.3574 70.2618 44.0515 73.183C43.5102 73.7152 42.9562 74.2274 42.3913 74.7233ZM46.6453 70.5056C44.8798 68.5966 43.1179 66.4841 41.3995 64.2136C43.0694 64.279 44.7696 64.3117 46.5 64.3117C48.2764 64.3117 50.0347 64.2735 51.7676 64.1954C50.1684 66.3845 48.4588 68.4906 46.6453 70.5056ZM69.2632 75.6987C68.7437 78.5033 67.6993 80.3742 66.4078 81.1225C63.6596 82.7173 57.7835 80.6448 51.4479 75.1792C50.7213 74.5544 49.9948 73.8841 49.2555 73.1812C51.8971 70.2486 54.3384 67.1415 56.5629 63.8812C60.5357 63.5446 64.4806 62.9347 68.3695 62.0557C68.5475 62.775 68.705 63.4798 68.8418 64.17C69.7155 68.5839 69.8408 72.5763 69.2632 75.6987ZM72.4238 57.0551C71.9479 57.2132 71.4574 57.3657 70.9597 57.5147C69.7403 53.7292 68.265 50.0309 66.544 46.4455C68.2004 42.9079 69.618 39.2633 70.7872 35.5362C71.679 35.7959 72.5455 36.0684 73.3792 36.3572C81.4477 39.1399 86.3701 43.2595 86.3701 46.4255C86.3701 49.804 81.0535 54.1888 72.4238 57.0551Z" stroke="#00741D" stroke-width="2" shape-rendering="crispEdges" mask="url(#path-1-inside-1_9_127)"/>
</g>
<path d="M43.7334 39.6624C45.0705 39.1099 46.5413 38.9664 47.96 39.2503C49.3787 39.5343 50.6817 40.2325 51.7031 41.2572C52.7246 42.282 53.4189 43.5875 53.6982 45.0072C53.9775 46.4267 53.8294 47.8975 53.2725 49.2328C52.7155 50.568 51.7746 51.7078 50.5693 52.5081C49.3641 53.3085 47.9487 53.7335 46.502 53.7289H46.501C45.5425 53.7277 44.593 53.5373 43.708 53.1693C42.8232 52.8013 42.0193 52.263 41.3428 51.5843C40.6661 50.9055 40.1298 50.0994 39.7646 49.2132C39.3996 48.3271 39.2128 47.3777 39.2148 46.4193V46.4183C39.2149 44.9714 39.6439 43.5566 40.4482 42.3539C41.2526 41.1512 42.3963 40.215 43.7334 39.6624Z" stroke="#00741D"/>
</g>
<defs>
<filter id="filter0_d_9_127" x="-1.09375" y="7.6287" width="95.1911" height="85.7424" filterUnits="userSpaceOnUse" color-interpolation-filters="sRGB">
<feFlood flood-opacity="0" result="BackgroundImageFix"/>
<feColorMatrix in="SourceAlpha" type="matrix" values="0 0 0 0 0 0 0 0 0 0 0 0 0 0 0 0 0 0 127 0" result="hardAlpha"/>
<feOffset dy="4"/>
<feGaussianBlur stdDeviation="2"/>
<feComposite in2="hardAlpha" operator="out"/>
<feColorMatrix type="matrix" values="0 0 0 0 0 0 0 0 0 0 0 0 0 0 0 0 0 0 0.25 0"/>
<feBlend mode="normal" in2="BackgroundImageFix" result="effect1_dropShadow_9_127"/>
<feBlend mode="normal" in="SourceGraphic" in2="effect1_dropShadow_9_127" result="shape"/>
</filter>
<clipPath id="clip0_9_127">
<rect width="93" height="93" fill="white"/>
</clipPath>
</defs>
</svg>
